<?xml version="1.0" encoding="UTF-8"?>
<svg width="420px" height="128px" viewBox="0 0 420 128" version="1.1" xmlns="http://www.w3.org/2000/svg" xmlns:xlink="http://www.w3.org/1999/xlink">
    <!-- Generator: Sketch 48.2 (47327) - http://www.bohemiancoding.com/sketch -->
    <title>favro-brand</title>
    <desc>Created with Sketch.</desc>
    <defs></defs>
    <g id="Page-1" stroke="none" stroke-width="1" fill="none" fill-rule="evenodd">
        <g id="favro-brand" fill="#512DA8">
            <path d="M10.2404,46.08 C4.5844,46.08 0.0004,50.664 0.0004,56.32 C0.0004,61.976 4.5844,66.56 10.2404,66.56 C21.5524,66.56 30.7204,75.728 30.7204,87.04 L30.7204,117.76 C30.7204,123.416 35.3044,128 40.9604,128 C46.6164,128 51.2004,123.416 51.2004,117.76 L51.2004,87.04 C51.2004,64.42 32.8604,46.08 10.2404,46.08" id="Fill-13"></path>
            <path d="M71.6804,0.0004 C49.0604,0.0004 30.7204,18.3404 30.7204,40.9604 L30.7204,45.7764 C39.5044,50.1564 46.7004,57.2564 51.2004,65.9724 L51.2004,40.9604 C51.2004,29.6484 60.3684,20.4804 71.6804,20.4804 C77.3364,20.4804 81.9204,15.8964 81.9204,10.2404 C81.9204,4.5844 77.3364,0.0004 71.6804,0.0004" id="Fill-15"></path>
            <path d="M107.5204,107.52 C96.2084,107.52 87.0404,98.352 87.0404,87.04 C87.0404,75.728 96.2084,66.56 107.5204,66.56 C118.8324,66.56 128.0004,75.728 128.0004,87.04 C128.0004,98.352 118.8324,107.52 107.5204,107.52 M138.2404,46.08 C134.0884,46.08 130.5204,48.556 128.9124,52.108 C122.6884,48.288 115.3604,46.08 107.5204,46.08 C84.9004,46.08 66.5604,64.42 66.5604,87.04 C66.5604,109.66 84.9004,128 107.5204,128 C115.3604,128 122.6884,125.792 128.9124,121.972 C130.5204,125.524 134.0884,128 138.2404,128 C143.8964,128 148.4804,123.416 148.4804,117.76 L148.4804,56.32 C148.4804,50.664 143.8964,46.08 138.2404,46.08" id="Fill-6"></path>
            <path d="M232.2132,47.0608 C227.1012,44.6448 220.9972,46.8328 218.5812,51.9488 L198.8252,93.7808 L179.0732,51.9488 C176.6572,46.8328 170.5572,44.6448 165.4412,47.0608 C160.3292,49.4768 158.1372,55.5768 160.5532,60.6928 L189.5652,122.1328 C191.2572,125.7168 194.8652,128.0008 198.8252,128.0008 C202.7892,128.0008 206.3932,125.7168 208.0852,122.1328 L237.1012,60.6928 C239.5132,55.5768 237.3252,49.4768 232.2132,47.0608" id="Fill-10"></path>
            <path d="M290.134,46.08 C282.294,46.08 274.966,48.288 268.742,52.108 C267.134,48.556 263.566,46.08 259.414,46.08 C253.758,46.08 249.174,50.664 249.174,56.32 L249.174,87.04 L249.174,117.76 C249.174,123.416 253.758,128 259.414,128 C265.07,128 269.654,123.416 269.654,117.76 L269.654,87.04 C269.654,75.728 278.822,66.56 290.134,66.56 C295.79,66.56 300.374,61.976 300.374,56.32 C300.374,50.664 295.79,46.08 290.134,46.08" id="Fill-8"></path>
            <path d="M343.0408,107.52 C331.7288,107.52 322.5608,98.352 322.5608,87.04 C322.5608,75.728 331.7288,66.56 343.0408,66.56 C354.3528,66.56 363.5208,75.728 363.5208,87.04 C363.5208,98.352 354.3528,107.52 343.0408,107.52 M343.0408,46.08 C320.4208,46.08 302.0808,64.42 302.0808,87.04 C302.0808,109.66 320.4208,128 343.0408,128 C365.6608,128 384.0008,109.66 384.0008,87.04 C384.0008,64.42 365.6608,46.08 343.0408,46.08" id="Fill-1"></path>
            <path d="M404.4808,97.28 C395.9968,97.28 389.1208,104.156 389.1208,112.64 C389.1208,121.124 395.9968,128 404.4808,128 C412.9648,128 419.8408,121.124 419.8408,112.64 C419.8408,104.156 412.9648,97.28 404.4808,97.28" id="Fill-3"></path>
        </g>
    </g>
</svg>